<svg width="18" height="19" viewBox="0 0 18 19" fill="none" xmlns="http://www.w3.org/2000/svg">
<path fill-rule="evenodd" clip-rule="evenodd" d="M8.92412 0.975342C3.99354 0.975342 0 4.96888 0 9.89946C0 13.8484 2.55453 17.1838 6.10187 18.3662C6.54807 18.4443 6.7154 18.1766 6.7154 17.9423C6.7154 17.7304 6.70424 17.0276 6.70424 16.2802C4.46206 16.6929 3.88199 15.7336 3.70351 15.2316C3.60311 14.9751 3.16806 14.183 2.78879 13.9711C2.47644 13.8038 2.03024 13.391 2.77763 13.3799C3.48041 13.3687 3.98239 14.0269 4.14971 14.2946C4.95289 15.6444 6.23573 15.2651 6.74886 15.0308C6.82695 14.4508 7.06121 14.0603 7.31778 13.8372C5.33216 13.6141 3.2573 12.8444 3.2573 9.43094C3.2573 8.46045 3.60311 7.65728 4.17203 7.03259C4.08278 6.80948 3.77044 5.89476 4.26127 4.6677C4.26127 4.6677 5.00866 4.43344 6.7154 5.58242C7.42933 5.38163 8.18788 5.28123 8.94643 5.28123C9.70498 5.28123 10.4635 5.38163 11.1775 5.58242C12.8842 4.42228 13.6316 4.6677 13.6316 4.6677C14.1224 5.89476 13.8101 6.80948 13.7208 7.03259C14.2897 7.65728 14.6356 8.44929 14.6356 9.43094C14.6356 12.8556 12.5495 13.6141 10.5639 13.8372C10.8874 14.1161 11.1663 14.6516 11.1663 15.4882C11.1663 16.6818 11.1551 17.6411 11.1551 17.9423C11.1551 18.1766 11.3225 18.4555 11.7687 18.3662C13.5402 17.7681 15.0797 16.6295 16.1703 15.1107C17.2608 13.5919 17.8477 11.7693 17.8482 9.89946C17.8482 4.96888 13.8547 0.975342 8.92412 0.975342Z" fill="#3A3A3A"/>
</svg>
