<svg width="21" height="17" viewBox="0 0 21 17" fill="none" xmlns="http://www.w3.org/2000/svg">
<path d="M18.75 14.5833H16.6667V5.46875L10.4167 9.375L4.16667 5.46875V14.5833H2.08333V2.08333H3.33333L10.4167 6.51042L17.5 2.08333H18.75V14.5833ZM18.75 0H2.08333C0.927083 0 0 0.927083 0 2.08333V14.5833C0 15.1359 0.219493 15.6658 0.610194 16.0565C1.00089 16.4472 1.5308 16.6667 2.08333 16.6667H18.75C19.3025 16.6667 19.8324 16.4472 20.2231 16.0565C20.6138 15.6658 20.8333 15.1359 20.8333 14.5833V2.08333C20.8333 1.5308 20.6138 1.00089 20.2231 0.610194C19.8324 0.219493 19.3025 0 18.75 0Z" fill="#3A3A3A"/>
</svg>
