<svg width="17" height="17" viewBox="0 0 17 17" fill="none" xmlns="http://www.w3.org/2000/svg">
<path d="M8.49772 5.66546C6.93694 5.66546 5.66323 6.9392 5.66323 8.5C5.66323 10.0608 6.93694 11.3345 8.49772 11.3345C10.0585 11.3345 11.3322 10.0608 11.3322 8.5C11.3322 6.9392 10.0585 5.66546 8.49772 5.66546ZM16.9991 8.5C16.9991 7.32621 17.0097 6.16305 16.9438 4.99138C16.8778 3.63046 16.5674 2.42264 15.5722 1.42747C14.575 0.430173 13.3693 0.121839 12.0084 0.0559198C10.8346 -0.00999972 9.67149 0.000632496 8.49984 0.000632496C7.32607 0.000632496 6.16293 -0.00999972 4.99129 0.0559198C3.63039 0.121839 2.4226 0.432299 1.42745 1.42747C0.430165 2.42477 0.121837 3.63046 0.0559188 4.99138C-0.00999953 6.16517 0.000632484 7.32833 0.000632484 8.5C0.000632484 9.67167 -0.00999953 10.837 0.0559188 12.0086C0.121837 13.3695 0.432291 14.5774 1.42745 15.5725C2.42473 16.5698 3.63039 16.8782 4.99129 16.9441C6.16506 17.01 7.3282 16.9994 8.49984 16.9994C9.67361 16.9994 10.8368 17.01 12.0084 16.9441C13.3693 16.8782 14.5771 16.5677 15.5722 15.5725C16.5695 14.5752 16.8778 13.3695 16.9438 12.0086C17.0118 10.837 16.9991 9.67379 16.9991 8.5V8.5ZM8.49772 12.8613C6.08425 12.8613 4.13647 10.9135 4.13647 8.5C4.13647 6.08649 6.08425 4.13868 8.49772 4.13868C10.9112 4.13868 12.859 6.08649 12.859 8.5C12.859 10.9135 10.9112 12.8613 8.49772 12.8613ZM13.0376 4.97862C12.4741 4.97862 12.019 4.52356 12.019 3.96006C12.019 3.39655 12.4741 2.94149 13.0376 2.94149C13.6011 2.94149 14.0561 3.39655 14.0561 3.96006C14.0563 4.09386 14.0301 4.22639 13.9789 4.35004C13.9278 4.4737 13.8528 4.58605 13.7582 4.68066C13.6636 4.77528 13.5512 4.8503 13.4276 4.90143C13.3039 4.95256 13.1714 4.97879 13.0376 4.97862V4.97862Z" fill="#3A3A3A"/>
</svg>
