<svg width="17" height="17" viewBox="0 0 17 17" fill="none" xmlns="http://www.w3.org/2000/svg">
<path fill-rule="evenodd" clip-rule="evenodd" d="M2.09197e-07 1.41331C2.09197e-07 1.03848 0.148902 0.678998 0.413949 0.413951C0.678996 0.148904 1.03848 1.88414e-06 1.41331 1.88414e-06H15.5018C15.6876 -0.000301502 15.8716 0.0360366 16.0433 0.106936C16.215 0.177835 16.371 0.281903 16.5024 0.413181C16.6338 0.544459 16.7381 0.70037 16.8091 0.871987C16.8802 1.0436 16.9168 1.22756 16.9167 1.41331V15.5018C16.9169 15.6876 16.8804 15.8716 16.8095 16.0433C16.7385 16.215 16.6343 16.371 16.503 16.5024C16.3717 16.6339 16.2157 16.7381 16.044 16.8092C15.8724 16.8802 15.6884 16.9168 15.5026 16.9167H1.41331C1.22765 16.9167 1.0438 16.8801 0.872283 16.809C0.700762 16.7379 0.544925 16.6338 0.413677 16.5024C0.282429 16.3711 0.178342 16.2152 0.107361 16.0437C0.036381 15.8721 -0.000100805 15.6883 2.09197e-07 15.5026V1.41331ZM6.69592 6.44987H8.98659V7.6002C9.31724 6.93891 10.1631 6.34375 11.4341 6.34375C13.8709 6.34375 14.4484 7.66095 14.4484 10.0777V14.5545H11.9824V10.6283C11.9824 9.25188 11.6517 8.47525 10.8121 8.47525C9.64711 8.47525 9.16268 9.31263 9.16268 10.6283V14.5545H6.69592V6.44987ZM2.46676 14.4491H4.93352V6.34375H2.46676V14.4484V14.4491ZM5.28646 3.70014C5.29111 3.91134 5.25353 4.12135 5.17592 4.31784C5.0983 4.51432 4.98223 4.69333 4.8345 4.84434C4.68677 4.99536 4.51037 5.11535 4.31564 5.19727C4.12091 5.27919 3.91178 5.32138 3.70052 5.32138C3.48926 5.32138 3.28013 5.27919 3.0854 5.19727C2.89068 5.11535 2.71427 4.99536 2.56654 4.84434C2.41881 4.69333 2.30274 4.51432 2.22513 4.31784C2.14752 4.12135 2.10993 3.91134 2.11458 3.70014C2.12371 3.28557 2.29481 2.89105 2.59124 2.60108C2.88766 2.31111 3.28585 2.14874 3.70052 2.14874C4.11519 2.14874 4.51338 2.31111 4.8098 2.60108C5.10623 2.89105 5.27733 3.28557 5.28646 3.70014V3.70014Z" fill="#3A3A3A"/>
</svg>
