<svg width="17" height="17" viewBox="0 0 17 17" fill="none" xmlns="http://www.w3.org/2000/svg">
<path d="M16.2075 2.68616L14.0103 0.49102C13.8554 0.335345 13.6711 0.211827 13.4683 0.127563C13.2654 0.0432983 13.0479 -5.26497e-05 12.8282 4.79869e-08C12.3805 4.79869e-08 11.9597 0.175364 11.644 0.49102L9.27972 2.85534C9.12404 3.01033 9.00053 3.19456 8.91627 3.39743C8.832 3.6003 8.78865 3.81782 8.7887 4.0375C8.7887 4.48519 8.96407 4.90607 9.27972 5.22172L11.0086 6.95061C10.6039 7.84261 10.0412 8.65409 9.3478 9.34587C8.65609 10.041 7.8447 10.6057 6.95257 11.0129L5.22371 9.28398C5.06872 9.12831 4.8845 9.00479 4.68163 8.92052C4.47876 8.83626 4.26124 8.79291 4.04157 8.79296C3.59388 8.79296 3.17301 8.96833 2.85736 9.28398L0.491013 11.6462C0.33515 11.8015 0.211528 11.9861 0.127261 12.1893C0.0429936 12.3926 -0.000255654 12.6104 1.13683e-06 12.8305C1.13683e-06 13.2782 0.175363 13.699 0.491013 14.0147L2.68406 16.2078C3.18745 16.7132 3.88271 17 4.59653 17C4.74714 17 4.89155 16.9876 5.03391 16.9629C7.81493 16.5049 10.5733 15.0256 12.7993 12.8016C15.0233 10.5796 16.5005 7.8233 16.9647 5.03398C17.105 4.18192 16.8223 3.3051 16.2075 2.68616V2.68616Z" fill="black"/>
</svg>
