<svg width="124" height="19" viewBox="0 0 124 19" fill="none" xmlns="http://www.w3.org/2000/svg">
<path d="M5.95 7.31C6.41667 7.31 6.81333 7.24 7.14 7.1C7.46667 6.95333 7.73 6.76 7.93 6.52C8.13667 6.28 8.28333 6 8.37 5.68C8.46333 5.36 8.51 5.02333 8.51 4.67C8.51 4.39667 8.47 4.15 8.39 3.93C8.31 3.70333 8.18333 3.51333 8.01 3.36C7.84333 3.2 7.63 3.07667 7.37 2.99C7.11667 2.90333 6.81667 2.86 6.47 2.86H5.31L4.76 7.31H5.95ZM6.77 0.43C7.66333 0.43 8.42333 0.526666 9.05 0.719999C9.68333 0.906666 10.2 1.16667 10.6 1.5C11 1.83333 11.29 2.23 11.47 2.69C11.6567 3.14333 11.75 3.63667 11.75 4.17C11.75 4.70333 11.6767 5.21333 11.53 5.7C11.39 6.18 11.1833 6.62333 10.91 7.03C10.6367 7.43 10.3033 7.78667 9.91 8.1C9.51667 8.40667 9.06667 8.66 8.56 8.86C8.76 8.97333 8.94333 9.11333 9.11 9.28C9.27667 9.44 9.41667 9.63667 9.53 9.87L11.65 15H8.71C8.43667 15 8.20667 14.9467 8.02 14.84C7.84 14.7267 7.71 14.5733 7.63 14.38L6.05 10.07C5.97 9.89 5.87 9.76 5.75 9.68C5.63 9.6 5.45 9.56 5.21 9.56H4.48L3.81 15H0.57L2.35 0.43H6.77ZM19.3153 9.41L18.6153 15H15.3553L16.0453 9.45L12.2953 0.43H15.1953C15.4753 0.43 15.692 0.496666 15.8453 0.63C16.0053 0.756666 16.122 0.926666 16.1953 1.14L17.5953 5.55C17.7953 6.12333 17.9453 6.66333 18.0453 7.17C18.172 6.91667 18.312 6.66 18.4653 6.4C18.6186 6.13333 18.782 5.85 18.9553 5.55L21.4353 1.14C21.5486 0.966666 21.6986 0.806666 21.8853 0.66C22.072 0.506667 22.302 0.43 22.5753 0.43H25.2753L19.3153 9.41ZM30.9005 9.45L30.1905 5.29C30.1371 5.03 30.0771 4.72333 30.0105 4.37C29.9505 4.01 29.8905 3.62333 29.8305 3.21C29.6705 3.63 29.5105 4.02 29.3505 4.38C29.1971 4.73333 29.0638 5.04333 28.9505 5.31L27.2405 9.45H30.9005ZM35.2305 15H32.7105C32.4305 15 32.2105 14.9367 32.0505 14.81C31.8971 14.6767 31.7905 14.5033 31.7305 14.29L31.2805 11.67H26.3305L25.2505 14.29C25.1571 14.47 25.0071 14.6333 24.8005 14.78C24.6005 14.9267 24.3705 15 24.1105 15H21.5505L28.5105 0.43H31.8505L35.2305 15ZM50.0103 0.43L48.2103 15H46.5103C46.257 15 46.0503 14.96 45.8903 14.88C45.737 14.7933 45.5903 14.6533 45.4503 14.46L40.3603 5.46C40.3403 5.84667 40.3103 6.19333 40.2703 6.5L39.2703 15H36.3903L38.1903 0.43H39.9103C40.0503 0.43 40.167 0.436666 40.2603 0.45C40.3603 0.456666 40.447 0.479999 40.5203 0.519999C40.5936 0.553333 40.6603 0.603333 40.7203 0.669999C40.7803 0.736666 40.8436 0.823332 40.9103 0.929999L46.0203 9.93C46.0403 9.69667 46.0603 9.47333 46.0803 9.26C46.1003 9.04667 46.1236 8.84667 46.1503 8.66L47.1303 0.43H50.0103ZM55.863 14.21C57.103 14.21 58.053 13.91 58.713 13.31C59.373 12.7033 59.703 11.8467 59.703 10.74C59.703 10.3533 59.633 10.0067 59.493 9.7C59.3596 9.38667 59.1596 9.12 58.893 8.9C58.633 8.68 58.3096 8.51 57.923 8.39C57.543 8.27 57.1063 8.21 56.613 8.21H53.363L52.623 14.21H55.863ZM54.173 1.64L53.453 7.49H56.243C56.8896 7.49 57.4496 7.39333 57.923 7.2C58.3963 7.00667 58.7863 6.75333 59.093 6.44C59.3996 6.12 59.6263 5.75667 59.773 5.35C59.9196 4.94333 59.993 4.52333 59.993 4.09C59.993 3.29667 59.743 2.69 59.243 2.27C58.7496 1.85 57.9863 1.64 56.953 1.64H54.173ZM57.043 0.849999C57.723 0.849999 58.3096 0.919999 58.803 1.06C59.2963 1.2 59.7063 1.40333 60.033 1.67C60.3596 1.93 60.5996 2.25 60.753 2.63C60.913 3.01 60.993 3.44 60.993 3.92C60.993 4.37333 60.9196 4.80667 60.773 5.22C60.633 5.62667 60.4263 6 60.153 6.34C59.8863 6.67333 59.5563 6.96333 59.163 7.21C58.7763 7.45667 58.3396 7.64 57.853 7.76C58.7796 7.91333 59.483 8.24333 59.963 8.75C60.4496 9.25 60.693 9.90333 60.693 10.71C60.693 11.3633 60.5796 11.9567 60.353 12.49C60.133 13.0167 59.8096 13.4667 59.383 13.84C58.963 14.2133 58.4496 14.5 57.843 14.7C57.2363 14.9 56.5496 15 55.783 15H51.533L53.273 0.849999H57.043ZM70.755 9.87L69.005 2.67C68.9783 2.55 68.9517 2.42 68.925 2.28C68.8983 2.13333 68.8717 1.97667 68.845 1.81C68.7783 1.97667 68.7117 2.13333 68.645 2.28C68.585 2.42 68.5283 2.55333 68.475 2.68L64.955 9.87H70.755ZM73.045 15H72.275C72.1817 15 72.1083 14.9767 72.055 14.93C72.0017 14.8767 71.965 14.8133 71.945 14.74L70.935 10.6H64.595L62.565 14.74C62.5317 14.8133 62.4783 14.8767 62.405 14.93C62.3317 14.9767 62.2517 15 62.165 15H61.405L68.465 0.849999H69.455L73.045 15ZM83.0844 2.56C83.011 2.67333 82.9244 2.73 82.8244 2.73C82.7444 2.73 82.6477 2.66667 82.5344 2.54C82.421 2.41333 82.2644 2.27667 82.0644 2.13C81.871 1.97667 81.6177 1.83667 81.3044 1.71C80.9977 1.58333 80.611 1.52 80.1444 1.52C79.6377 1.52 79.1844 1.60333 78.7844 1.77C78.391 1.93 78.0544 2.15333 77.7744 2.44C77.501 2.72 77.291 3.05 77.1444 3.43C76.9977 3.80333 76.9244 4.20333 76.9244 4.63C76.9244 5.03667 77.0077 5.38 77.1744 5.66C77.341 5.93333 77.5577 6.17 77.8244 6.37C78.0977 6.56333 78.4044 6.73333 78.7444 6.88C79.091 7.02 79.4444 7.16 79.8044 7.3C80.171 7.43333 80.5244 7.58333 80.8644 7.75C81.211 7.91 81.5177 8.10667 81.7844 8.34C82.0577 8.57333 82.2777 8.85667 82.4444 9.19C82.611 9.52333 82.6944 9.93333 82.6944 10.42C82.6944 11.06 82.5844 11.67 82.3644 12.25C82.1444 12.8233 81.8277 13.3267 81.4144 13.76C81.0077 14.1867 80.511 14.5267 79.9244 14.78C79.3377 15.0333 78.681 15.16 77.9544 15.16C77.101 15.16 76.381 14.9967 75.7944 14.67C75.2077 14.3367 74.7144 13.8833 74.3144 13.31L74.6444 12.88C74.7377 12.7867 74.831 12.74 74.9244 12.74C74.9844 12.74 75.051 12.78 75.1244 12.86C75.2044 12.94 75.2977 13.04 75.4044 13.16C75.5177 13.2733 75.6477 13.4 75.7944 13.54C75.9477 13.6733 76.131 13.8 76.3444 13.92C76.5577 14.0333 76.8044 14.13 77.0844 14.21C77.371 14.29 77.701 14.33 78.0744 14.33C78.6344 14.33 79.141 14.2367 79.5944 14.05C80.0477 13.8567 80.4344 13.5933 80.7544 13.26C81.0744 12.9267 81.3177 12.5367 81.4844 12.09C81.6577 11.6367 81.7444 11.15 81.7444 10.63C81.7444 10.2167 81.661 9.87333 81.4944 9.6C81.3277 9.32 81.1077 9.08333 80.8344 8.89C80.5677 8.69667 80.261 8.53333 79.9144 8.4C79.5744 8.26667 79.2244 8.13333 78.8644 8C78.5044 7.86667 78.151 7.72 77.8044 7.56C77.4577 7.4 77.1477 7.20333 76.8744 6.97C76.6077 6.73 76.391 6.44 76.2244 6.1C76.0644 5.75333 75.9844 5.33 75.9844 4.83C75.9844 4.29 76.081 3.77 76.2744 3.27C76.4677 2.77 76.7444 2.33 77.1044 1.95C77.471 1.56333 77.9177 1.25667 78.4444 1.03C78.971 0.803332 79.571 0.689999 80.2444 0.689999C80.9244 0.689999 81.521 0.816666 82.0344 1.07C82.5477 1.31667 82.991 1.68 83.3644 2.16L83.0844 2.56ZM86.1453 8.98C86.1453 9.8 86.252 10.54 86.4653 11.2C86.6786 11.8533 86.982 12.41 87.3753 12.87C87.7686 13.33 88.242 13.6867 88.7953 13.94C89.3486 14.1867 89.9686 14.31 90.6553 14.31C91.5353 14.31 92.3453 14.14 93.0853 13.8C93.8253 13.4533 94.4653 12.9567 95.0053 12.31C95.5453 11.6633 95.9653 10.8833 96.2653 9.97C96.572 9.05 96.7253 8.01333 96.7253 6.86C96.7253 6.04 96.6186 5.30333 96.4053 4.65C96.1986 3.99 95.8986 3.43 95.5053 2.97C95.112 2.50333 94.6353 2.14667 94.0753 1.9C93.522 1.64667 92.902 1.52 92.2153 1.52C91.3486 1.52 90.5453 1.69333 89.8053 2.04C89.0653 2.38667 88.422 2.88333 87.8753 3.53C87.3353 4.17667 86.912 4.96 86.6053 5.88C86.2986 6.8 86.1453 7.83333 86.1453 8.98ZM93.1953 14.64C92.7886 14.8067 92.3653 14.9333 91.9253 15.02C91.4853 15.1067 91.0253 15.15 90.5453 15.15C89.7186 15.15 88.972 15.0033 88.3053 14.71C87.6386 14.41 87.0686 13.99 86.5953 13.45C86.1286 12.91 85.7686 12.2633 85.5153 11.51C85.262 10.7567 85.1353 9.92333 85.1353 9.01C85.1353 7.77 85.3186 6.64 85.6853 5.62C86.052 4.59333 86.5553 3.71667 87.1953 2.99C87.842 2.25667 88.602 1.69 89.4753 1.29C90.3553 0.889999 91.3053 0.689999 92.3253 0.689999C93.1586 0.689999 93.9086 0.839999 94.5753 1.14C95.2486 1.43333 95.8186 1.85 96.2853 2.39C96.7586 2.93 97.122 3.58 97.3753 4.34C97.6286 5.09333 97.7553 5.92667 97.7553 6.84C97.7553 7.69333 97.6653 8.49667 97.4853 9.25C97.312 10.0033 97.062 10.6933 96.7353 11.32C96.4153 11.9467 96.0253 12.5067 95.5653 13C95.112 13.4933 94.6053 13.9033 94.0453 14.23L96.9453 18.12H96.1653C95.9053 18.12 95.7086 18.04 95.5753 17.88L93.1953 14.64ZM104.792 14.3C105.412 14.3 105.979 14.18 106.492 13.94C107.012 13.7 107.465 13.37 107.852 12.95C108.245 12.53 108.569 12.0333 108.822 11.46C109.075 10.8867 109.242 10.27 109.322 9.61L110.402 0.849999H111.392L110.322 9.61C110.222 10.39 110.015 11.12 109.702 11.8C109.389 12.4733 108.985 13.06 108.492 13.56C108.005 14.06 107.439 14.4533 106.792 14.74C106.145 15.0267 105.439 15.17 104.672 15.17C103.912 15.17 103.245 15.0267 102.672 14.74C102.099 14.4533 101.629 14.06 101.262 13.56C100.895 13.06 100.639 12.4733 100.492 11.8C100.345 11.12 100.319 10.39 100.412 9.61L101.482 0.849999H102.472L101.402 9.6C101.322 10.26 101.335 10.8767 101.442 11.45C101.555 12.0233 101.755 12.5233 102.042 12.95C102.329 13.37 102.702 13.7 103.162 13.94C103.629 14.18 104.172 14.3 104.792 14.3ZM116.087 1.67L115.377 7.43H121.047L120.937 8.23H115.277L114.547 14.18H121.387L121.277 15H113.447L115.187 0.849999H123.007L122.897 1.67H116.087Z" fill="#3A3A3A"/>
</svg>
